<svg height="512pt" viewBox="0 -77 512 512" width="512pt" xmlns="http://www.w3.org/2000/svg"><path d="m392.53125 349.867188h93.867188c9.425781 0 17.070312-7.640626 17.070312-17.066407v-307.199219c0-9.425781-7.644531-17.070312-17.070312-17.070312h-460.796876c-9.425781 0-17.070312 7.644531-17.070312 17.070312v307.199219c0 9.425781 7.644531 17.066407 17.070312 17.066407zm0 0" fill="#c52828"/><path d="m372.667969 349.867188h88.984375c4.414062-.113282 8.605468-1.972657 11.644531-5.175782 3.042969-3.199218 4.683594-7.476562 4.570313-11.890625v-307.199219c.113281-4.414062-1.53125-8.695312-4.570313-11.894531s-7.230469-5.0625-11.644531-5.175781h-436.90625c-4.414063.113281-8.601563 1.976562-11.640625 5.175781-3.042969 3.199219-4.6875 7.480469-4.570313 11.894531v307.199219c-.117187 4.414063 1.527344 8.691407 4.570313 11.890625 3.039062 3.203125 7.226562 5.0625 11.640625 5.175782zm0 0" fill="#f44335"/><path d="m256 85.332031 30.496094 61.800781 68.199218 9.90625-49.347656 48.101563 11.648438 67.925781-60.996094-32.070312-60.996094 32.070312 11.648438-67.925781-49.347656-48.101563 68.199218-9.90625zm0 0" fill="#ffeb3a"/><path d="m486.398438 0h-460.796876c-14.140624 0-25.601562 11.460938-25.601562 25.601562v307.199219c0 14.136719 11.460938 25.597657 25.601562 25.597657h460.796876c14.140624 0 25.601562-11.460938 25.601562-25.597657v-307.199219c0-14.140624-11.460938-25.601562-25.601562-25.601562zm8.535156 332.800781c0 4.710938-3.820313 8.53125-8.535156 8.53125h-460.796876c-4.714843 0-8.535156-3.820312-8.535156-8.53125v-307.199219c0-4.714843 3.820313-8.535156 8.535156-8.535156h460.796876c4.714843 0 8.535156 3.820313 8.535156 8.535156zm0 0"/><path d="m355.925781 148.597656-63.761719-9.265625-28.484374-57.769531c-1.59375-2.707031-4.503907-4.371094-7.644532-4.371094-3.144531 0-6.050781 1.664063-7.648437 4.371094l-28.515625 57.769531-63.796875 9.265625c-3.214844.464844-5.890625 2.714844-6.894531 5.808594-1.007813 3.089844-.167969 6.484375 2.160156 8.75l46.148437 44.972656-10.898437 63.496094c-.546875 3.199219.769531 6.429688 3.394531 8.339844 2.625 1.90625 6.105469 2.160156 8.980469.652344l57.035156-29.976563 57.035156 29.976563c2.875 1.511718 6.351563 1.257812 8.980469-.648438 2.632813-1.902344 3.957031-5.140625 3.410156-8.34375l-10.914062-63.496094 46.148437-44.972656c2.328125-2.269531 3.164063-5.660156 2.160156-8.753906-1.003906-3.089844-3.679687-5.339844-6.894531-5.804688zm-56.535156 50.433594c-2.007813 1.960938-2.921875 4.785156-2.449219 7.550781l8.722656 50.886719-45.695312-24.023438c-2.484375-1.304687-5.453125-1.304687-7.9375 0l-45.695312 24.023438 8.703124-50.886719c.476563-2.765625-.4375-5.589843-2.449218-7.550781l-36.949219-36.046875 51.082031-7.421875c2.78125-.40625 5.183594-2.148438 6.425782-4.667969l22.851562-46.277343 22.851562 46.292968c1.242188 2.519532 3.644532 4.265625 6.425782 4.667969l51.082031 7.425781zm0 0"/></svg>