<svg height="512" viewBox="0 0 58 59" width="512" xmlns="http://www.w3.org/2000/svg"><g id="Page-1" fill="none" fill-rule="evenodd"><g id="012---Virus-Spreading" fill-rule="nonzero"><g fill="#338f7c"><path id="Shape" d="m29 4c-.5522847 0-1-.44771525-1-1v-2c0-.55228475.4477153-1 1-1s1 .44771525 1 1v2c0 .55228475-.4477153 1-1 1z"/><path id="Shape" d="m25.5 4.938c-.3576137.00034843-.6881932-.19029718-.867-.5l-1-1.732c-.1814844-.30957042-.1831833-.69264947-.0044519-1.00381742.1787315-.31116795.5104885-.50271357.8693336-.50192468.3588451.00078888.6897567.19379132.8671183.5057421l1 1.732c.1785415.30924248.1786393.6902222.0002566.99955632-.1783827.30933411-.5081742.50007763-.8652566.50044368z"/><path id="Shape" d="m22.937 7.5c-.175539-.00000772-.3479833-.04622279-.5-.134l-1.732-1c-.3119508-.17736158-.5049532-.50827321-.5057421-.8671183s.1907567-.69060211.5019247-.86933356c.3111679-.17873145.694247-.17703252 1.0038174.00445186l1.732 1c.3919413.22631394.5830208.68765624.4658809 1.12482233-.1171398.4371661-.5132928.74115776-.9658809.74117767z"/><path id="Shape" d="m22 11h-2c-.5522847 0-1-.4477153-1-1 0-.55228475.4477153-1 1-1h2c.5522847 0 1 .44771525 1 1 0 .5522847-.4477153 1-1 1z"/><path id="Shape" d="m21.207 15.5c-.4525881-.0000199-.8487411-.3040116-.9658809-.7411777-.1171399-.4371661.0739396-.8985084.4658809-1.1248223l1.732-1c.3095704-.1814844.6926495-.1831833 1.0038174-.0044519.311168.1787315.5027136.5104885.5019247.8693336s-.1937913.6897567-.5057421.8671183l-1.732 1c-.1520167.0877772-.324461.1339923-.5.134z"/><path id="Shape" d="m24.5 18.794c-.3570824-.000366-.6868739-.1911096-.8652566-.5004437s-.1782849-.6903138.0002566-.9995563l1-1.732c.1773616-.3119508.5082732-.5049532.8671183-.5057421s.6906021.1907567.8693336.5019247c.1787314.3111679.1770325.694247-.0044519 1.0038174l-1 1.732c-.1788068.3097028-.5093863.5003484-.867.5z"/><path id="Shape" d="m33.5 18.794c-.3576137.0003484-.6881932-.1902972-.867-.5l-1-1.732c-.1814844-.3095704-.1831833-.6926495-.0044519-1.0038174.1787315-.311168.5104885-.5027136.8693336-.5019247s.6897567.1937913.8671183.5057421l1 1.732c.1785415.3092425.1786393.6902222.0002566.9995563s-.5081742.5000777-.8652566.5004437z"/><path id="Shape" d="m36.793 15.5c-.175539-.0000077-.3479833-.0462228-.5-.134l-1.732-1c-.4742136-.2780058-.6351286-.886647-.3602745-1.3626943.274854-.4760473.8824145-.640996 1.3602745-.3693057l1.732 1c.3919413.2263139.5830208.6876562.4658809 1.1248223-.1171398.4371661-.5132928.7411578-.9658809.7411777z"/><path id="Shape" d="m38 11h-2c-.5522847 0-1-.4477153-1-1 0-.55228475.4477153-1 1-1h2c.5522847 0 1 .44771525 1 1 0 .5522847-.4477153 1-1 1z"/><path id="Shape" d="m35.063 7.5c-.4525881-.00001991-.8487411-.30401157-.9658809-.74117767-.1171399-.43716609.0739396-.89850839.4658809-1.12482233l1.732-1c.3095704-.18148438.6926495-.18318331 1.0038174-.00445186.311168.17873145.5027136.51048847.5019247.86933356s-.1937913.68975672-.5057421.8671183l-1.732 1c-.1520167.08777721-.324461.13399228-.5.134z"/><path id="Shape" d="m32.5 4.938c-.3570824-.00036605-.6868739-.19110957-.8652566-.50044368-.1783827-.30933412-.1782849-.69031384.0002566-.99955632l1-1.732c.1773616-.31195078.5082732-.50495322.8671183-.5057421.3588451-.00078889.6906021.19075673.8693336.50192468.1787314.31116795.1770325.694247-.0044519 1.00381742l-1 1.732c-.1788068.30970282-.5093863.50034843-.867.5z"/></g><path id="Shape" d="m40 21h-10v-4c0-.5522847-.4477153-1-1-1s-1 .4477153-1 1v4h-10c-1.6568542 0-3 1.3431458-3 3v2c0 .5522847.4477153 1 1 1s1-.4477153 1-1v-2c0-.5522847.4477153-1 1-1h22c.5522847 0 1 .4477153 1 1v2c0 .5522847.4477153 1 1 1s1-.4477153 1-1v-2c0-1.6568542-1.3431458-3-3-3z" fill="#e54c3c"/><path id="Shape" d="m51 41h-8v-3c0-.5522847-.4477153-1-1-1s-1 .4477153-1 1v3h-24v-3c0-.5522847-.4477153-1-1-1s-1 .4477153-1 1v3h-8c-2.209139 0-4 1.790861-4 4v2c0 .5522847.44771525 1 1 1s1-.4477153 1-1v-2c0-1.1045695.8954305-2 2-2h21v4c0 .5522847.4477153 1 1 1s1-.4477153 1-1v-4h21c1.1045695 0 2 .8954305 2 2v2c0 .5522847.4477153 1 1 1s1-.4477153 1-1v-2c0-2.209139-1.790861-4-4-4z" fill="#e54c3c"/><circle id="Oval" cx="29" cy="50" fill="#fcd6ac" r="3"/><path id="Shape" d="m29 53c2.209139 0 4 1.790861 4 4v1c0 .5522847-.4477153 1-1 1h-6c-.5522847 0-1-.4477153-1-1v-1c0-2.209139 1.790861-4 4-4z" fill="#4fb96f"/><circle id="Oval" cx="16" cy="29" fill="#fcd6ac" r="3"/><path id="Shape" d="m16 32c2.209139 0 4 1.790861 4 4v1c0 .5522847-.4477153 1-1 1h-6c-.5522847 0-1-.4477153-1-1v-1c0-2.209139 1.790861-4 4-4z" fill="#ff5364"/><circle id="Oval" cx="42" cy="29" fill="#fcd6ac" r="3"/><path id="Shape" d="m42 32c2.209139 0 4 1.790861 4 4v1c0 .5522847-.4477153 1-1 1h-6c-.5522847 0-1-.4477153-1-1v-1c0-2.209139 1.790861-4 4-4z" fill="#f19b1f"/><circle id="Oval" cx="4" cy="50" fill="#fcd6ac" r="3"/><path id="Shape" d="m4 53c2.209139 0 4 1.790861 4 4v1c0 .5522847-.44771525 1-1 1h-6c-.55228475 0-1-.4477153-1-1v-1c0-2.209139 1.790861-4 4-4z" fill="#3b96d2"/><circle id="Oval" cx="54" cy="50" fill="#fcd6ac" r="3"/><path id="Shape" d="m54 53c2.209139 0 4 1.790861 4 4v1c0 .5522847-.4477153 1-1 1h-6c-.5522847 0-1-.4477153-1-1v-1c0-2.209139 1.790861-4 4-4z" fill="#f2d45b"/><circle id="Oval" cx="29" cy="10" fill="#26b899" r="7"/><circle id="Oval" cx="27" cy="8" fill="#fff" r="1"/><circle id="Oval" cx="28" cy="12" fill="#fff" r="1"/><circle id="Oval" cx="31" cy="9" fill="#fff" r="1"/></g></g></svg>