<svg height="512" viewBox="0 0 58 58" width="512" xmlns="http://www.w3.org/2000/svg"><g id="Page-1" fill="none" fill-rule="evenodd"><g id="028---Hospital-Bed" fill-rule="nonzero"><path id="Shape" d="m55 40v16h-52v-16h13z" fill="#46b19c"/><path id="Shape" d="m4 28v28c0 1.1045695-.8954305 2-2 2s-2-.8954305-2-2v-28c.0032948-1.1032019.89679813-1.9967052 2-2 .53059053-.0028231 1.0395388.2101411 1.41.59.3798589.3704612.59282307.8794095.59 1.41z" fill="#a46a43"/><path id="Shape" d="m58 36v20c0 1.1045695-.8954305 2-2 2s-2-.8954305-2-2v-20c.0032948-1.1032019.8967981-1.9967052 2-2 1.1011688.0081672 1.9918328.8988312 2 2z" fill="#a46a43"/><path id="Shape" d="m20 37.5c.0021341.6636932-.2605727 1.3008186-.729877 1.770123-.4693044.4693043-1.1064298.7320111-1.770123.729877h-7c-.893164 0-1.71848159-.4764973-2.1650636-1.25s-.44658201-1.7264973 0-2.5 1.2718996-1.25 2.1650636-1.25h7c1.3807119 0 2.5 1.1192881 2.5 2.5z" fill="#80cbb7"/><path id="Shape" d="m54 40v11h-36c-1.1032019-.0032948-1.9967052-.8967981-2-2v-9z" fill="#65dcb8"/><circle id="Oval" cx="29" cy="15" fill="#ff5364" r="15"/><g fill="#fff"><path id="Shape" d="m37 13v4c0 .5522847-.4477153 1-1 1h-3c-.5522847 0-1 .4477153-1 1v3c0 .5522847-.4477153 1-1 1h-4c-.5522847 0-1-.4477153-1-1v-3c0-.5522847-.4477153-1-1-1h-3c-.5522847 0-1-.4477153-1-1v-4c0-.5522847.4477153-1 1-1h3c.5522847 0 1-.4477153 1-1v-3c0-.55228475.4477153-1 1-1h4c.5522847 0 1 .44771525 1 1v3c0 .5522847.4477153 1 1 1h3c.5522847 0 1 .4477153 1 1z"/><path id="Shape" d="m42 45h-22c-.5522847 0-1-.4477153-1-1s.4477153-1 1-1h22c.5522847 0 1 .4477153 1 1s-.4477153 1-1 1z"/><circle id="Oval" cx="46" cy="44" r="1"/></g></g></g></svg>