<svg height="512" viewBox="0 0 59 59" width="512" xmlns="http://www.w3.org/2000/svg"><g id="Page-1" fill="none" fill-rule="evenodd"><g id="070---Gobal-Virus" fill-rule="nonzero" transform="translate(-1)"><path id="Shape" d="m29.57 20.07c-.7509881.2849931-1.437683.716727-2.02 1.27l-.73.7c-.7787215.7787215-2.0412785.7787215-2.82 0s-.7787215-2.0412785 0-2.82l.55-.51c.2538772-.2342448.3676198-.5836893.3002673-.9224929-.0673526-.3388036-.3061007-.6181746-.6302673-.7375071-1.6876641-.5978911-2.9071402-2.0789583-3.17-3.85.9772346-.1376144 1.9631336-.204455 2.95-.2 1.7475831-.0049299 3.4896384.1964637 5.19.6-.124446.7939839-.1879647 1.5963252-.19 2.4-.0055674 1.3769412.1863871 2.7475632.57 4.07z" fill="#4fb96f"/><path id="Shape" d="m45.12 38c-1.3579174.0002346-2.660221-.5393939-3.62-1.5s-2.2620826-1.5002346-3.62-1.5h-.88c-1.1032019-.0032948-1.9967052-.8967981-2-2v-5c-2.6340319-1.9731017-4.5428436-4.7607402-5.43-7.93-.7509881.2849931-1.437683.716727-2.02 1.27l-.73.7c-.7787215.7787215-2.0412785.7787215-2.82 0s-.7787215-2.0412785 0-2.82l.55-.51c.2538772-.2342448.3676198-.5836893.3002673-.9224929-.0673526-.3388036-.3061007-.6181746-.6302673-.7375071-1.6876641-.5978911-2.9071402-2.0789583-3.17-3.85-4.2409263.5413164-8.2454895 2.2595373-11.56 4.96l6.74 5.24c.4843549.381547.7679249.9634179.77 1.58v3.02c-.0049422 1.6548028-1.3451972 2.9950578-3 3h-2.13c-.3686674-.0022471-.708296.1997402-.8823337.5247503-.1740377.3250102-.1538934.7196501.0523337 1.0252497l1.9 2.86c.2106008.3132251.3220992.6825636.32 1.06-.0019292.6382135-.3203723 1.2338894-.85 1.59-.8036459.5398506-1.8846948.3891067-2.51-.35l-2.73-3.18c-1.40000137-1.631469-2.16976562-3.7101872-2.17-5.86v-5.63c-5.43298541 7.9595665-5.32770819 18.4622042.26374103 26.311263 5.59144927 7.8490588 15.48330747 11.3800109 24.78113517 8.8457596 9.2978276-2.5342514 16.0298604-10.5962745 16.8651238-20.1970226zm-10.12 7.5c.0008594.9678973-.351108 1.9029217-.99 2.63l-5.39 6.17c-.3976989.4433222-.9644387.6976285-1.56.7-.5472437.0029458-1.0729261-.2131432-1.4598915-.6001085-.3869653-.3869654-.6030543-.9126478-.6001085-1.4598915v-2.94c0-2.209139-1.790861-4-4-4h-1c-1.1032019-.0032948-1.9967052-.8967981-2-2v-3.66c-.0014128-.8925799.5910937-1.6771402 1.45-1.92l4.56-1.3c.638758-.1859335 1.3212001-.1542738 1.94.09l7.79 3.12c.7614421.3032546 1.2607934 1.0403923 1.26 1.86z" fill="#3b96d2"/><path id="Shape" d="m35 42.19v3.31c.0008594.9678973-.351108 1.9029217-.99 2.63l-5.39 6.17c-.3976989.4433222-.9644387.6976285-1.56.7-.5472437.0029458-1.0729261-.2131432-1.4598915-.6001085-.3869653-.3869654-.6030543-.9126478-.6001085-1.4598915v-2.94c0-2.209139-1.790861-4-4-4h-1c-1.1032019-.0032948-1.9967052-.8967981-2-2v-3.66c-.0014128-.8925799.5910937-1.6771402 1.45-1.92l4.56-1.3c.638758-.1859335 1.3212001-.1542738 1.94.09l7.79 3.12c.7614421.3032546 1.2607934 1.0403923 1.26 1.86z" fill="#4fb96f"/><path id="Shape" d="m47 36c0 .68-.03 1.34-.09 2h-1.79c-1.3579174.0002346-2.660221-.5393939-3.62-1.5s-2.2620826-1.5002346-3.62-1.5h-.88c-1.1032019-.0032948-1.9967052-.8967981-2-2v-5c2.5941234 1.9517541 5.7536488 3.0049292 9 3 .8069927-.00204 1.6126573-.0655571 2.41-.19.3947191 1.7017061.592683 3.4431171.59 5.19z" fill="#4fb96f"/><path id="Shape" d="m17 24.98v3.02c-.0049422 1.6548028-1.3451972 2.9950578-3 3h-2.13c-.3686674-.0022471-.708296.1997402-.8823337.5247503-.1740377.3250102-.1538934.7196501.0523337 1.0252497l1.9 2.86c.2106008.3132251.3220992.6825636.32 1.06-.0019292.6382135-.3203723 1.2338894-.85 1.59-.8036459.5398506-1.8846948.3891067-2.51-.35l-2.73-3.18c-1.40000137-1.631469-2.16976562-3.7101872-2.17-5.86v-5.63c1.25450641-1.8338825 2.76671059-3.4774363 4.49-4.88l6.74 5.24c.4843549.381547.7679249.9634179.77 1.58z" fill="#4fb96f"/><path id="Shape" d="m59 16c-.0034441 7.3537484-5.3327244 13.622743-12.59 14.81-.7973427.1244429-1.6030073.18796-2.41.19-6.7160302.0025075-12.61327-4.4643554-14.43-10.93-.3836129-1.3224368-.5755674-2.6930588-.57-4.07.0020353-.8036748.065554-1.6060161.19-2.4 1.2415074-7.72613703 8.2137557-13.19978894 16.0137671-12.57181084 7.8000113.62797811 13.8067655 7.14656815 13.7962329 14.97181084z" fill="#ff5364"/><path id="Shape" d="m44 32c-8.836556 0-16-7.163444-16-16s7.163444-16 16-16 16 7.163444 16 16c-.0104696 8.8322157-7.1677843 15.9895304-16 16zm0-30c-7.7319865 0-14 6.2680135-14 14s6.2680135 14 14 14 14-6.2680135 14-14c-.0082673-7.72855947-6.2714405-13.99173268-14-14z" fill="#ebeff0"/><g fill="#338f7c"><path id="Shape" d="m44 8c-.5522847 0-1-.44771525-1-1v-2c0-.55228475.4477153-1 1-1s1 .44771525 1 1v2c0 .55228475-.4477153 1-1 1z"/><path id="Shape" d="m39.5 9.206c-.3576137.00034843-.6881932-.19029718-.867-.5l-1-1.732c-.1814844-.30957042-.1831833-.69264947-.0044519-1.00381742.1787315-.31116795.5104885-.50271357.8693336-.50192468.3588451.00078888.6897567.19379132.8671183.5057421l1 1.732c.1785415.30924248.1786393.6902222.0002566.99955632-.1783827.30933411-.5081742.50007763-.8652566.50044368z"/><path id="Shape" d="m36.205 12.5c-.1755887.0003718-.3481299-.0458692-.5-.134l-1.732-1c-.3119508-.1773616-.5049532-.5082732-.5057421-.8671183s.1907567-.69060211.5019247-.86933356c.3111679-.17873145.694247-.17703252 1.0038174.00445186l1.732 1c.3919413.2263139.5830208.6876562.4658809 1.1248223-.1171398.4371661-.5132928.7411578-.9658809.7411777z"/><path id="Shape" d="m35 17h-2c-.5522847 0-1-.4477153-1-1s.4477153-1 1-1h2c.5522847 0 1 .4477153 1 1s-.4477153 1-1 1z"/><path id="Shape" d="m34.475 22.5c-.4525881-.0000199-.8487411-.3040116-.9658809-.7411777-.1171399-.4371661.0739396-.8985084.4658809-1.1248223l1.732-1c.47786-.2716903 1.0854205-.1067416 1.3602745.3693057.2748541.4760473.1139391 1.0846885-.3602745 1.3626943l-1.732 1c-.1520167.0877772-.324461.1339923-.5.134z"/><path id="Shape" d="m38.5 26.526c-.3570824-.000366-.6868739-.1911096-.8652566-.5004437s-.1782849-.6903138.0002566-.9995563l1-1.732c.1773616-.3119508.5082732-.5049532.8671183-.5057421s.6906021.1907567.8693336.5019247c.1787314.3111679.1770325.694247-.0044519 1.0038174l-1 1.732c-.1788068.3097028-.5093863.5003484-.867.5z"/><path id="Shape" d="m44 28c-.5522847 0-1-.4477153-1-1v-2c0-.5522847.4477153-1 1-1s1 .4477153 1 1v2c0 .5522847-.4477153 1-1 1z"/><path id="Shape" d="m49.5 26.526c-.3576137.0003484-.6881932-.1902972-.867-.5l-1-1.732c-.1814844-.3095704-.1831833-.6926495-.0044519-1.0038174.1787315-.311168.5104885-.5027136.8693336-.5019247s.6897567.1937913.8671183.5057421l1 1.732c.1785415.3092425.1786393.6902222.0002566.9995563s-.5081742.5000777-.8652566.5004437z"/><path id="Shape" d="m53.525 22.5c-.175539-.0000077-.3479833-.0462228-.5-.134l-1.732-1c-.3119508-.1773616-.5049532-.5082732-.5057421-.8671183s.1907567-.6906021.5019247-.8693336c.3111679-.1787314.694247-.1770325 1.0038174.0044519l1.732 1c.3919413.2263139.5830208.6876562.4658809 1.1248223-.1171398.4371661-.5132928.7411578-.9658809.7411777z"/><path id="Shape" d="m55 17h-2c-.5522847 0-1-.4477153-1-1s.4477153-1 1-1h2c.5522847 0 1 .4477153 1 1s-.4477153 1-1 1z"/><path id="Shape" d="m51.8 12.5c-.4525881-.0000199-.8487411-.3040116-.9658809-.7411777-.1171399-.4371661.0739396-.8985084.4658809-1.1248223l1.732-1c.3095704-.18148438.6926495-.18318331 1.0038174-.00445186.311168.17873145.5027136.51048846.5019247.86933356s-.1937913.6897567-.5057421.8671183l-1.732 1c-.1518701.0881308-.3244113.1343718-.5.134z"/><path id="Shape" d="m48.5 9.206c-.3570824-.00036605-.6868739-.19110957-.8652566-.50044368-.1783827-.30933412-.1782849-.69031384.0002566-.99955632l1-1.732c.1773616-.31195078.5082732-.50495322.8671183-.5057421.3588451-.00078889.6906021.19075673.8693336.50192468.1787314.31116795.1770325.694247-.0044519 1.00381742l-1 1.732c-.1788068.30970282-.5093863.50034843-.867.5z"/></g><circle id="Oval" cx="44" cy="16" fill="#26b899" r="9"/><circle id="Oval" cx="42" cy="14" fill="#fff" r="2"/><circle id="Oval" cx="48" cy="15" fill="#fff" r="1"/><circle id="Oval" cx="42" cy="20" fill="#fff" r="1"/><circle id="Oval" cx="47" cy="20" fill="#fff" r="1"/><path id="Shape" d="m44.12 47.15c-4.1109413 7.400451-11.9549063 11.9443828-20.4197269 11.828947s-16.18195938-4.8715763-20.08956771-12.3813772c-3.90760833-7.509801-3.37392939-16.5591264 1.38929461-23.5575698v5.63c.00023438 2.1498128.76999863 4.228531 2.17 5.86l.74.87c2.3346514 8.0697031 8.8886548 14.2210323 17.09 16.04v1.5c-.0029458.5472437.2131432 1.0729261.6001085 1.4598915.3869654.3869653.9126478.6030543 1.4598915.6001085.5955613-.0023715 1.1623011-.2566778 1.56-.7l2.02-2.32c4.8949144-.1233811 9.6205926-1.8166323 13.48-4.83z" fill="#2980b9"/><path id="Shape" d="m7 29c-.00062482 2.165617.30575665 4.3203877.91 6.4l-.74-.87c-1.40000137-1.631469-2.16976562-3.7101872-2.17-5.86v-5.63c1.25450641-1.8338825 2.76671059-3.4774363 4.49-4.88l.16.13c-1.74465769 3.3000378-2.65449768 6.9771647-2.65 10.71z" fill="#24ad5f"/><path id="Shape" d="m30.64 51.98-2.02 2.32c-.3976989.4433222-.9644387.6976285-1.56.7-.5472437.0029458-1.0729261-.2131432-1.4598915-.6001085-.3869653-.3869654-.6030543-.9126478-.6001085-1.4598915l-.0000297-1.5c1.6402019.37488 3.3175636.5627445 5.0000297.56.22 0 .43 0 .64-.02z" fill="#24ad5f"/></g></g></svg>