<svg height="512" viewBox="0 0 59 59" width="512" xmlns="http://www.w3.org/2000/svg"><g id="Page-1" fill="none" fill-rule="evenodd"><g id="034---Microscope-On-Germs" fill-rule="nonzero"><path id="Shape" d="m42 48.29v8.71h-10v-8.71c3.2661229.9466466 6.7338771.9466466 10 0z" fill="#7f8b8c"/><rect id="Rectangle-path" fill="#ebeff0" height="22" rx="4" width="22" x="1" y="1"/><path id="Shape" d="m53.83 26.62c3.2915852 8.7600822-.6783636 18.5811293-9.1327931 22.5931356-8.4544295 4.0120064-18.5728366.8765167-23.2772069-7.2131356l2.58-2 2.29 2c3.7813139 4.5076918 9.9787714 6.1680192 15.5071637 4.1544405 5.5283922-2.0135787 9.2063174-7.2707675 9.2028363-13.1544405.0064882-1.7102576-.3090044-3.4064544-.93-5z" fill="#94a4a4"/><path id="Shape" d="m44.4 24.15-6.8 6.8-4.826-3.33-3.654-5.16 17.09-17.1 4.69 3.19 3.8 5.3-2.55 2.55z" fill="#3b96d2"/><path id="Shape" d="m34.774 23.461c-.4043959-.0000863-.7689341-.2437275-.923678-.6173454-.1547439-.373618-.0692299-.8036603.216678-1.0896546l11.433-11.443c.2525868-.2527654.6208353-.35157685.96603-.259213.3451946.0923639.6148921.3618707.7075.707s-.0059432.7134476-.25853.966213l-11.433 11.443c-.1877377.1877946-.4424587.2932088-.708.293z" fill="#fff"/><path id="Shape" d="m58.7 7.03-3.08 3.09-5.72-5.72 3.09-3.1c.1881405-.19241273.4458913-.30087555.715-.30087555s.5268595.10846282.715.30087555l4.28 4.3c.1924127.18814048.3008755.44589129.3008755.715s-.1084628.52685952-.3008755.715z" fill="#464f5d"/><path id="Shape" d="m56.12 9.62-.01.01" fill="#bcc2c6"/><path id="Shape" d="m37.6 33.77c-.3751365.3755541-.8841815.5865733-1.415.5865733s-1.0398635-.2110192-1.415-.5865733l-8.48-8.48c-.3755541-.3751365-.5865733-.8841815-.5865733-1.415s.2110192-1.0398635.5865733-1.415c.7848286-.7733635 2.0451714-.7733635 2.83 0l8.48 8.49c.3744562.3736892.5848881.8809811.5848881 1.41s-.2104319 1.0363108-.5848881 1.41z" fill="#bcc2c6"/><path id="Shape" d="m57.53 13.85c-.3751365.3755541-.8841815.5865733-1.415.5865733s-1.0398635-.2110192-1.415-.5865733l-8.49-8.49c-.3744562-.37368919-.5848881-.88098106-.5848881-1.41s.2104319-1.03631081.5848881-1.41c.3740839-.37752996.8835232-.58991619 1.415-.58991619s1.0409161.21238623 1.415.58991619l1.36 1.36 5.72 5.72 1.41 1.4c.3755541.3751365.5865733.8841815.5865733 1.415s-.2110192 1.0398635-.5865733 1.415z" fill="#bcc2c6"/><path id="Shape" d="m50 58c0 .5522847-.4477153 1-1 1h-24c-.5522847 0-1-.4477153-1-1 0-1.6568542 1.3431458-3 3-3h20c1.6568542 0 3 1.3431458 3 3z" fill="#bcc2c6"/><g fill="#338f7c"><path id="Shape" d="m12 8c-.5522847 0-1-.44771525-1-1v-2c0-.55228475.4477153-1 1-1s1 .44771525 1 1v2c0 .55228475-.4477153 1-1 1z"/><path id="Shape" d="m9.5 8.67c-.35761373.00034843-.68819322-.19029718-.867-.5l-1-1.732c-.18148438-.30957042-.18318331-.69264947-.00445186-1.00381742s.51048847-.50271357.86933356-.50192468c.35884509.00078888.68975672.19379132.8671183.5057421l1 1.732c.1785415.30924248.1786393.6902222.0002566.99955632-.1783827.30933411-.5081742.50007763-.8652566.50044368z"/><path id="Shape" d="m7.669 10.5c-.17553897-.0000077-.34798325-.0462228-.5-.134l-1.732-1c-.47421361-.27800577-.63512861-.88664704-.36027453-1.3626943.27485408-.47604727.88241457-.64099599 1.36027453-.3693057l1.732 1c.39194126.22631394.58302085.68765624.46588095 1.12482233-.1171399.43716607-.51329289.74115777-.96588095.74117767z"/><path id="Shape" d="m7 13h-2c-.55228475 0-1-.4477153-1-1s.44771525-1 1-1h2c.55228475 0 1 .4477153 1 1s-.44771525 1-1 1z"/><path id="Shape" d="m5.939 16.5c-.45258806-.0000199-.84874105-.3040116-.96588095-.7411777s.07393969-.8985084.46588095-1.1248223l1.732-1c.30957042-.1814844.69264947-.1831833 1.00381742-.0044519.31116795.1787315.50271357.5104885.50192468.8693336-.00078888.3588451-.19379132.6897567-.5057421.8671183l-1.732 1c-.15201675.0877772-.32446103.1339923-.5.134z"/><path id="Shape" d="m8.5 19.062c-.3570824-.000366-.68687394-.1911096-.86525662-.5004437-.17838267-.3093341-.17828486-.6903138.00025662-.9995563l1-1.732c.27800577-.4742136.88664704-.6351286 1.3626943-.3602745.4760473.274854.640996.8824145.3693057 1.3602745l-1 1.732c-.17880678.3097028-.50938627.5003484-.867.5z"/><path id="Shape" d="m12 20c-.5522847 0-1-.4477153-1-1v-2c0-.5522847.4477153-1 1-1s1 .4477153 1 1v2c0 .5522847-.4477153 1-1 1z"/><path id="Shape" d="m15.5 19.062c-.3576137.0003484-.6881932-.1902972-.867-.5l-1-1.732c-.2716903-.47786-.1067416-1.0854205.3693057-1.3602745.4760473-.2748541 1.0846885-.1139391 1.3626943.3602745l1 1.732c.1785415.3092425.1786393.6902222.0002566.9995563s-.5081742.5000777-.8652566.5004437z"/><path id="Shape" d="m18.061 16.5c-.175539-.0000077-.3479833-.0462228-.5-.134l-1.732-1c-.4742136-.2780058-.6351286-.886647-.3602745-1.3626943.274854-.4760473.8824145-.640996 1.3602745-.3693057l1.732 1c.3919413.2263139.5830208.6876562.4658809 1.1248223-.1171398.4371661-.5132928.7411578-.9658809.7411777z"/><path id="Shape" d="m19 13h-2c-.5522847 0-1-.4477153-1-1s.4477153-1 1-1h2c.5522847 0 1 .4477153 1 1s-.4477153 1-1 1z"/><path id="Shape" d="m16.331 10.5c-.4525881-.0000199-.8487411-.3040116-.9658809-.74117767-.1171399-.43716609.0739396-.89850839.4658809-1.12482233l1.732-1c.3095704-.18148438.6926495-.18318331 1.0038174-.00445186.311168.17873145.5027136.51048847.5019247.86933356s-.1937913.68975672-.5057421.8671183l-1.732 1c-.1520167.0877772-.324461.1339923-.5.134z"/><path id="Shape" d="m14.5 8.67c-.3570824-.00036605-.6868739-.19110957-.8652566-.50044368-.1783827-.30933412-.1782849-.69031384.0002566-.99955632l1-1.732c.2780058-.47421361.886647-.63512861 1.3626943-.36027453s.640996.88241457.3693057 1.36027453l-1 1.732c-.1788068.30970282-.5093863.50034843-.867.5z"/></g><path id="Shape" d="m19 24c2.7600532-.0033061 4.9966939-2.2399468 5-5v-14c-.0033061-2.76005315-2.2399468-4.99669388-5-5h-14c-2.76005315.00330612-4.99669388 2.23994685-5 5v14c.00330612 2.7600532 2.23994685 4.9966939 5 5h6v5c0 1.1045695.8954305 2 2 2h8v3c0 .5522847.4477153 1 1 1s1-.4477153 1-1v-3c0-1.1045695-.8954305-2-2-2h-8v-5zm-17-5v-14c0-1.65685425 1.34314575-3 3-3h14c1.6568542 0 3 1.34314575 3 3v14c0 1.6568542-1.3431458 3-3 3h-14c-1.65685425 0-3-1.3431458-3-3z" fill="#ff5364"/><circle id="Oval" cx="12" cy="12" fill="#26b899" r="5"/><circle id="Oval" cx="11" cy="11" fill="#fff" r="2"/><path id="Shape" d="m31 40c-.0081672 1.1011688-.8988312 1.9918328-2 2h-12c-1.1032019-.0032948-1.9967052-.8967981-2-2 .0081672-1.1011688.8988312-1.9918328 2-2h12c1.1032019.0032948 1.9967052.8967981 2 2z" fill="#bcc2c6"/><path id="Shape" d="m56 22c.0002237 3.2865632-2.6436605 5.9616568-5.93 6h-.07c-2.4835763-.0006467-4.7100519-1.5313486-5.6-3.85-.2659446-.6855363-.4016007-1.4146879-.4-2.15 0-3.3137085 2.6862915-6 6-6 .7353121-.0016007 1.4644637.1340554 2.15.4 2.3186514.8899481 3.8493533 3.1164237 3.85 5.6z" fill="#bcc2c6"/><circle id="Oval" cx="50" cy="22" fill="#ebeff0" r="2"/></g></g></svg>