<svg height="512" viewBox="0 0 50 57" width="512" xmlns="http://www.w3.org/2000/svg"><g id="Page-1" fill="none" fill-rule="evenodd"><g id="055---Sneeze-Into-Arm" fill-rule="nonzero"><path id="Shape" d="m33.75 19.076v-8.076h-24.75v8c-2.209139 0-4 1.790861-4 4s1.790861 4 4 4c0 0 3 9 12 9s12-9 12-9c2.0532742-.0131495 3.7631065-1.5788255 3.9565865-3.6230058.19348-2.0441804-1.1922411-3.9028479-3.2065865-4.3009942z" fill="#f8c694"/><path id="Shape" d="m33.75 19.07s3.877-10.67-2.584-14.67c-5.811-3.6-19.984 1.433-25.6-3.338-.30529135-.23644677-.71943665-.27599226-1.06395834-.10159418-.3445217.17439808-.55784666.53157119-.54804166.91759418.02935715 1.75798461.2320044 3.50878988.605 5.227 1.1344532 4.9588446 5.8309831 8.2599254 10.881 7.648 2.3074529-.2156403 4.5639981-.8078145 6.68-1.753 5.88-3 10.338.737 11.63 6.07" fill="#ca8152"/><path id="Shape" d="m28 44c.0000001 2.5008592-1.3341924 4.8117484-3.5 6.0621779-2.1658075 1.2504296-4.8341925 1.2504296-7 0-2.1658076-1.2504295-3.5000001-3.5613187-3.5-6.0621779z" fill="#3b96d2"/><path id="Shape" d="m48.62 43.99c-2.06 4.03-8.38 10.93-14.62 13.01h-32c-1.10116878-.0081672-1.99183278-.8988312-2-2-.00159287-2.9178694 1.15682085-5.716688 3.22006641-7.7799336 2.06324555-2.0632455 4.86206418-3.2216593 7.77993359-3.2200664h3c-.0000001 2.5008592 1.3341924 4.8117484 3.4999999 6.062178 2.1658076 1.2504296 4.8341926 1.2504296 7.0000002 0 2.1658075-1.2504296 3.5-3.5613188 3.4999999-6.062178l9.08-3.5c.5036776-.177045.8378573-.6561701.83-1.19.0075709-.3462248-.125251-.6807852-.3682366-.927538-.2429855-.2467528-.5754631-.3847058-.9217634-.382462h-14.62v-8h17s5.61 0 8.82 4.01c2.1968773 2.8834028 2.5095072 6.7834602.8 9.98z" fill="#3b96d2"/><path id="Rectangle-path" d="m18 30h4v8h-4z" fill="#2980b9"/><path id="Shape" d="m18 30v8h-2.59c-.6066233.0013943-1.1800676.2770886-1.56.75l-.9 1.12c-.4686306.5902667-1.1443943.9799929-1.89 1.09-.1483077.028185-.2990462.041584-.45.04h-4.56c-1.10320187-.0032948-1.9967052-.8967981-2-2v-2h-.57c-.99456669.000587-1.92450517-.4927444-2.48172986-1.316555-.55722468-.8238106-.66899063-1.870553-.29827014-2.793445l1.6-4c.45035174-1.1413245 1.55303736-1.8909921 2.78-1.89h7.14c.5329123.0002413 1.0438267.2125227 1.42.59l1.82 1.82c.3761733.3774773.8870877.5897587 1.42.59z" fill="#fcd6ac"/><g fill="#f8c694"><path id="Shape" d="m28 44c.0000001 2.5008592-1.3341924 4.8117484-3.5 6.0621779-2.1658075 1.2504296-4.8341925 1.2504296-7 0-2.1658076-1.2504295-3.5000001-3.5613187-3.5-6.0621779.5556115-.3956234 1.0595272-.8592258 1.5-1.38.9167282-.9885153 1.4488914-2.2728026 1.5-3.62 0-.36-.02-.69-.05-1h8.1c-.03.31-.05.64-.05 1 0 3 3 5 3 5z"/><path id="Shape" d="m8.05 38h-4c-.55228475 0-1-.4477153-1-1s.44771525-1 1-1h4c.55228475 0 1 .4477153 1 1s-.44771525 1-1 1z"/></g></g></g></svg>