<svg height="512" viewBox="0 0 59 59" width="512" xmlns="http://www.w3.org/2000/svg"><g id="Page-1" fill="none" fill-rule="evenodd"><g id="059---Health-Protection" fill-rule="nonzero"><path id="Shape" d="m32.22 42.67c-1.76 1.59-3.61 3.27-5.54 5.06-.381804.360148-.978196.360148-1.36 0-15.05-13.93-25.32-21.39-25.32-32.58 0-8.22 5.3-15.15 13-15.15 9.01 0 13 8.71 13 8.71s3.99-8.71 13-8.71c7.7 0 13 6.93 13 15.15 0 4.73-1.84 8.79-5.1 12.96z" fill="#ff5364"/><path id="Shape" d="m58 31.97v7.82c0 7.75-4.9 14.78-12.59 18.13-.2622654.1100043-.5577346.1100043-.82 0-6.4550448-2.6400263-11.1184499-8.3891717-12.37-15.25-.1439685-.9532937-.2175009-1.9158996-.22-2.88v-7.82c-.0009542-.5296773.4112761-.9682202.94-1 2.27-.12 8.1-1.02 11.45-3.75.3549447-.2900592.8650553-.2900592 1.22 0 .4080876.3272356.8392017.6246709 1.29.89 3.1440843 1.6666537 6.608186 2.6417847 10.16 2.86.5287239.0317798.9409542.4703227.94 1z" fill="#4fb96f"/><path id="Shape" d="m42 49c-.2658175.0006099-.5208048-.1052746-.708-.294l-3-3c-.2595768-.2514473-.3632881-.623386-.271275-.9728705.092013-.3494846.3654323-.6221315.7151758-.7131556.3497434-.091024.7213872.013739.9720992.2740261l2.183 2.186 8.309-11.08c.3313708-.4418278.9581722-.5313708 1.4-.2s.5313708.9581722.2 1.4l-9 12c-.1736394.2330861-.440099.3790914-.73.4-.023 0-.047 0-.07 0z" fill="#fff"/><path id="Shape" d="m45 59c-.2748626.0005001-.5469862-.0546049-.8-.162-6.7735435-2.7707634-11.6638192-8.8078103-12.968-16.009-.1519891-1.0059133-.229533-2.021672-.232-3.039v-7.82c-.001816-1.0604458.8243686-1.9379654 1.883-2 1.95-.1 7.7-.938 10.875-3.528.7245815-.5934891 1.7678078-.5913943 2.49.005.3661543.2943081.7531693.5616759 1.158.8 3.0072257 1.5845233 6.3164221 2.5129661 9.709 2.724 1.0594203.0610162 1.8867556.9388255 1.885 2v7.82c0 8.08-5.178 15.557-13.19 19.047-.2565019.1074536-.5319006.1625334-.81.162zm-.014-31c-3.425 2.817-9.345 3.828-11.992 3.969l.006 7.821c.0023579.9145684.0722143 1.8277155.209 2.732 1.1989316 6.5199389 5.6400968 11.9782742 11.78 14.478 7.305-3.17 12.011-9.926 12.011-17.21v-7.822c-3.7131505-.2216607-7.3342029-1.2451351-10.614-3-.4897999-.2888506-.958327-.6123416-1.402-.968z" fill="#ebeff0"/><path id="Shape" d="m25.946 28.173c-.8191101.0042441-1.556534-.4955831-1.856-1.258l-4.19-10.478-1.727 3.456c-.3365477.6808037-1.0315616 1.1103852-1.791 1.107h-10.382c-.55228475 0-1-.4477153-1-1s.44771525-1 1-1h10.382l1.727-3.456c.3519966-.7051443 1.0852877-1.1378254 1.8727221-1.1050066.7874344.0328187 1.4821783.5250176 1.7742779 1.2570066l4.191 10.479 3.223-9.025c.2757614-.7859872 1.0131135-1.3160339 1.846-1.327.8293096-.0088478 1.5800149.4893763 1.894 1.257l2.27 5.675 1.672-2.786c.3629004-.6001678 1.0126471-.9674983 1.714-.969h7.434c.5522847 0 1 .4477153 1 1s-.4477153 1-1 1h-7.434l-1.666 2.784c-.3907157.6521798-1.1174144 1.0264385-1.8752519.9657776-.7578374-.060661-1.4157497-.5457505-1.6977481-1.2517776l-2.269-5.676-3.228 9.024c-.2755149.7861717-1.0130172 1.3163263-1.846 1.327z" fill="#f2d45b"/><path id="Shape" d="m4.165 14c-.05090256-.0000179-.10172522-.0040302-.152-.012-.54549411-.0836645-.920089-.5934179-.837-1.139.752-4.903 4.081-9.849 9.824-9.849.5522847 0 1 .44771525 1 1s-.4477153 1-1 1c-4.87 0-7.271 4.392-7.848 8.151-.07450214.4877382-.49360506.8482432-.987.849z" fill="#fff"/></g></g></svg>