<svg height="512" viewBox="0 0 60 60" width="512" xmlns="http://www.w3.org/2000/svg"><g id="Page-1" fill="none" fill-rule="evenodd"><g id="049---Group-Of-Virus'" fill-rule="nonzero"><g fill="#e47e25"><path id="Shape" d="m43 6c-.5522847 0-1-.44771525-1-1v-4c0-.55228475.4477153-1 1-1s1 .44771525 1 1v4c0 .55228475-.4477153 1-1 1z"/><path id="Shape" d="m37 7.607c-.3576137.00034843-.6881932-.19029718-.867-.5l-2-3.463c-.1814844-.30957042-.1831833-.69264947-.0044519-1.00381742.1787315-.31116795.5104885-.50271357.8693336-.50192468.3588451.00078888.6897567.19379132.8671183.5057421l2 3.463c.1785415.30924248.1786393.6902222.0002566.99955632-.1783827.30933411-.5081742.50007763-.8652566.50044368z"/><path id="Shape" d="m32.606 12c-.175539-.0000077-.3479833-.0462228-.5-.134l-3.463-2c-.3119508-.17736158-.5049532-.50827321-.5057421-.8671183s.1907567-.69060211.5019247-.86933356c.3111679-.17873145.694247-.17703252 1.0038174.00445186l3.463 2c.3919413.2263139.5830208.6876562.4658809 1.1248223-.1171398.4371661-.5132928.7411578-.9658809.7411777z"/><path id="Shape" d="m31 18h-4c-.5522847 0-1-.4477153-1-1s.4477153-1 1-1h4c.5522847 0 1 .4477153 1 1s-.4477153 1-1 1z"/><path id="Shape" d="m29.145 26c-.4525881-.0000199-.8487411-.3040116-.9658809-.7411777-.1171399-.4371661.0739396-.8985084.4658809-1.1248223l3.463-2c.3095704-.1814844.6926495-.1831833 1.0038174-.0044519.311168.1787315.5027136.5104885.5019247.8693336s-.1937913.6897567-.5057421.8671183l-3.463 2c-.1520167.0877772-.324461.1339923-.5.134z"/><path id="Shape" d="m35 31.856c-.3570824-.000366-.6868739-.1911096-.8652566-.5004437s-.1782849-.6903138.0002566-.9995563l2-3.463c.1773616-.3119508.5082732-.5049532.8671183-.5057421s.6906021.1907567.8693336.5019247c.1787314.3111679.1770325.694247-.0044519 1.0038174l-2 3.463c-.1788068.3097028-.5093863.5003484-.867.5z"/><path id="Shape" d="m43 34c-.5522847 0-1-.4477153-1-1v-4c0-.5522847.4477153-1 1-1s1 .4477153 1 1v4c0 .5522847-.4477153 1-1 1z"/><path id="Shape" d="m51 31.856c-.3576137.0003484-.6881932-.1902972-.867-.5l-2-3.463c-.1814844-.3095704-.1831833-.6926495-.0044519-1.0038174.1787315-.311168.5104885-.5027136.8693336-.5019247s.6897567.1937913.8671183.5057421l2 3.463c.1785415.3092425.1786393.6902222.0002566.9995563s-.5081742.5000777-.8652566.5004437z"/><path id="Shape" d="m56.855 26c-.175539-.0000077-.3479833-.0462228-.5-.134l-3.463-2c-.3119508-.1773616-.5049532-.5082732-.5057421-.8671183s.1907567-.6906021.5019247-.8693336c.3111679-.1787314.694247-.1770325 1.0038174.0044519l3.463 2c.3919413.2263139.5830208.6876562.4658809 1.1248223-.1171398.4371661-.5132928.7411578-.9658809.7411777z"/><path id="Shape" d="m59 18h-4c-.5522847 0-1-.4477153-1-1s.4477153-1 1-1h4c.5522847 0 1 .4477153 1 1s-.4477153 1-1 1z"/><path id="Shape" d="m53.394 12c-.4525881-.0000199-.8487411-.3040116-.9658809-.7411777-.1171399-.4371661.0739396-.8985084.4658809-1.1248223l3.463-2c.3095704-.18148438.6926495-.18318331 1.0038174-.00445186.311168.17873145.5027136.51048847.5019247.86933356s-.1937913.68975672-.5057421.8671183l-3.463 2c-.1520167.0877772-.324461.1339923-.5.134z"/><path id="Shape" d="m49 7.607c-.3570824-.00036605-.6868739-.19110957-.8652566-.50044368-.1783827-.30933412-.1782849-.69031384.0002566-.99955632l2-3.463c.1773616-.31195078.5082732-.50495322.8671183-.5057421.3588451-.00078889.6906021.19075673.8693336.50192468.1787314.31116795.1770325.694247-.0044519 1.00381742l-2 3.463c-.1788068.30970282-.5093863.50034843-.867.5z"/></g><path id="Shape" d="m17 26c-.5522847 0-1-.4477153-1-1v-4c0-.5522847.4477153-1 1-1s1 .4477153 1 1v4c0 .5522847-.4477153 1-1 1z" fill="#338f7c"/><path id="Shape" d="m11 27.607c-.3576137.0003484-.6881932-.1902972-.867-.5l-2-3.463c-.18148438-.3095704-.18318331-.6926495-.00445186-1.0038174.17873145-.311168.51048847-.5027136.86933356-.5019247s.68975672.1937913.8671183.5057421l2 3.463c.1785415.3092425.1786393.6902222.0002566.9995563s-.5081742.5000777-.8652566.5004437z" fill="#338f7c"/><path id="Shape" d="m6.606 32c-.17553897-.0000077-.34798325-.0462228-.5-.134l-3.463-2c-.31195078-.1773616-.50495322-.5082732-.5057421-.8671183-.00078889-.3588451.19075673-.6906021.50192468-.8693336.31116795-.1787314.694247-.1770325 1.00381742.0044519l3.463 2c.39194126.2263139.58302085.6876562.46588095 1.1248223s-.51329289.7411578-.96588095.7411777z" fill="#338f7c"/><path id="Shape" d="m5 38h-4c-.55228475 0-1-.4477153-1-1s.44771525-1 1-1h4c.55228475 0 1 .4477153 1 1s-.44771525 1-1 1z" fill="#338f7c"/><path id="Shape" d="m3.145 46c-.45258806-.0000199-.84874105-.3040116-.96588095-.7411777s.07393969-.8985084.46588095-1.1248223l3.463-2c.30957042-.1814844.69264947-.1831833 1.00381742-.0044519.31116795.1787315.50271357.5104885.50192468.8693336-.00078888.3588451-.19379132.6897567-.5057421.8671183l-3.463 2c-.15201675.0877772-.32446103.1339923-.5.134z" fill="#338f7c"/><path id="Shape" d="m9 51.856c-.3570824-.000366-.68687394-.1911096-.86525662-.5004437-.17838267-.3093341-.17828486-.6903138.00025662-.9995563l2-3.463c.1773616-.3119508.5082732-.5049532.8671183-.5057421s.6906021.1907567.8693336.5019247c.1787314.3111679.1770325.694247-.0044519 1.0038174l-2 3.463c-.17880678.3097028-.50938627.5003484-.867.5z" fill="#338f7c"/><path id="Shape" d="m17 54c-.5522847 0-1-.4477153-1-1v-4c0-.5522847.4477153-1 1-1s1 .4477153 1 1v4c0 .5522847-.4477153 1-1 1z" fill="#338f7c"/><path id="Shape" d="m25 51.856c-.3576137.0003484-.6881932-.1902972-.867-.5l-2-3.463c-.1814844-.3095704-.1831833-.6926495-.0044519-1.0038174.1787315-.311168.5104885-.5027136.8693336-.5019247s.6897567.1937913.8671183.5057421l2 3.463c.1785415.3092425.1786393.6902222.0002566.9995563s-.5081742.5000777-.8652566.5004437z" fill="#338f7c"/><path id="Shape" d="m30.855 46c-.175539-.0000077-.3479833-.0462228-.5-.134l-3.463-2c-.3119508-.1773616-.5049532-.5082732-.5057421-.8671183s.1907567-.6906021.5019247-.8693336c.3111679-.1787314.694247-.1770325 1.0038174.0044519l3.463 2c.3919413.2263139.5830208.6876562.4658809 1.1248223-.1171398.4371661-.5132928.7411578-.9658809.7411777z" fill="#338f7c"/><path id="Shape" d="m33 38h-4c-.5522847 0-1-.4477153-1-1s.4477153-1 1-1h4c.5522847 0 1 .4477153 1 1s-.4477153 1-1 1z" fill="#338f7c"/><path id="Shape" d="m27.394 32c-.4525881-.0000199-.8487411-.3040116-.9658809-.7411777-.1171399-.4371661.0739396-.8985084.4658809-1.1248223l3.463-2c.3095704-.1814844.6926495-.1831833 1.0038174-.0044519.311168.1787315.5027136.5104885.5019247.8693336s-.1937913.6897567-.5057421.8671183l-3.463 2c-.1520167.0877772-.324461.1339923-.5.134z" fill="#338f7c"/><path id="Shape" d="m23 27.607c-.3570824-.000366-.6868739-.1911096-.8652566-.5004437s-.1782849-.6903138.0002566-.9995563l2-3.463c.1773616-.3119508.5082732-.5049532.8671183-.5057421s.6906021.1907567.8693336.5019247c.1787314.3111679.1770325.694247-.0044519 1.0038174l-2 3.463c-.1788068.3097028-.5093863.5003484-.867.5z" fill="#338f7c"/><circle id="Oval" cx="43" cy="17" fill="#f19b1f" r="12"/><circle id="Oval" cx="17" cy="37" fill="#149f84" r="12"/><circle id="Oval" cx="13" cy="34" fill="#f4eec9" r="2"/><circle id="Oval" cx="21" cy="40" fill="#f4eec9" r="3"/><path id="Shape" d="m47 39c-.5522847 0-1-.4477153-1-1v-3c0-.5522847.4477153-1 1-1s1 .4477153 1 1v3c0 .5522847-.4477153 1-1 1z" fill="#de4d60"/><path id="Shape" d="m42.5 40.206c-.3576137.0003484-.6881932-.1902972-.867-.5l-1.5-2.6c-.1814844-.3095704-.1831833-.6926495-.0044519-1.0038174.1787315-.311168.5104885-.5027136.8693336-.5019247s.6897567.1937913.8671183.5057421l1.5 2.6c.1785415.3092425.1786393.6902222.0002566.9995563s-.5081742.5000777-.8652566.5004437z" fill="#de4d60"/><path id="Shape" d="m39.205 43.5c-.1755887.0003718-.3481299-.0458692-.5-.134l-2.6-1.5c-.4742136-.2780058-.6351286-.886647-.3602745-1.3626943.274854-.4760473.8824145-.640996 1.3602745-.3693057l2.6 1.5c.3919413.2263139.5830208.6876562.4658809 1.1248223-.1171398.4371661-.5132928.7411578-.9658809.7411777z" fill="#de4d60"/><path id="Shape" d="m38 48h-3c-.5522847 0-1-.4477153-1-1s.4477153-1 1-1h3c.5522847 0 1 .4477153 1 1s-.4477153 1-1 1z" fill="#de4d60"/><path id="Shape" d="m36.608 54c-.4525881-.0000199-.8487411-.3040116-.9658809-.7411777-.1171399-.4371661.0739396-.8985084.4658809-1.1248223l2.6-1.5c.47786-.2716903 1.0854205-.1067416 1.3602745.3693057.2748541.4760473.1139391 1.0846885-.3602745 1.3626943l-2.6 1.5c-.1518701.0881308-.3244113.1343718-.5.134z" fill="#de4d60"/><path id="Shape" d="m41 58.393c-.3570824-.000366-.6868739-.1911096-.8652566-.5004437s-.1782849-.6903138.0002566-.9995563l1.5-2.6c.1773616-.3119508.5082732-.5049532.8671183-.5057421s.6906021.1907567.8693336.5019247c.1787314.3111679.1770325.694247-.0044519 1.0038174l-1.5 2.6c-.1788068.3097028-.5093863.5003484-.867.5z" fill="#de4d60"/><path id="Shape" d="m47 60c-.5522847 0-1-.4477153-1-1v-3c0-.5522847.4477153-1 1-1s1 .4477153 1 1v3c0 .5522847-.4477153 1-1 1z" fill="#de4d60"/><path id="Shape" d="m53 58.393c-.3576137.0003484-.6881932-.1902972-.867-.5l-1.5-2.6c-.1814844-.3095704-.1831833-.6926495-.0044519-1.0038174.1787315-.311168.5104885-.5027136.8693336-.5019247s.6897567.1937913.8671183.5057421l1.5 2.6c.1785415.3092425.1786393.6902222.0002566.9995563s-.5081742.5000777-.8652566.5004437z" fill="#de4d60"/><path id="Shape" d="m57.392 54c-.1755887.0003718-.3481299-.0458692-.5-.134l-2.6-1.5c-.3119508-.1773616-.5049532-.5082732-.5057421-.8671183s.1907567-.6906021.5019247-.8693336c.3111679-.1787314.694247-.1770325 1.0038174.0044519l2.6 1.5c.3919413.2263139.5830208.6876562.4658809 1.1248223-.1171398.4371661-.5132928.7411578-.9658809.7411777z" fill="#de4d60"/><path id="Shape" d="m59 48h-3c-.5522847 0-1-.4477153-1-1s.4477153-1 1-1h3c.5522847 0 1 .4477153 1 1s-.4477153 1-1 1z" fill="#de4d60"/><path id="Shape" d="m54.8 43.5c-.4525881-.0000199-.8487411-.3040116-.9658809-.7411777-.1171399-.4371661.0739396-.8985084.4658809-1.1248223l2.6-1.5c.47786-.2716903 1.0854205-.1067416 1.3602745.3693057.2748541.4760473.1139391 1.0846885-.3602745 1.3626943l-2.6 1.5c-.1518701.0881308-.3244113.1343718-.5.134z" fill="#de4d60"/><path id="Shape" d="m51.5 40.206c-.3570824-.000366-.6868739-.1911096-.8652566-.5004437s-.1782849-.6903138.0002566-.9995563l1.5-2.6c.2780058-.4742136.886647-.6351286 1.3626943-.3602745.4760473.274854.640996.8824145.3693057 1.3602745l-1.5 2.6c-.1788068.3097028-.5093863.5003484-.867.5z" fill="#de4d60"/><circle id="Oval" cx="47" cy="47" fill="#ff5364" r="9"/><circle id="Oval" cx="48" cy="43" fill="#f4eec9" r="1"/><circle id="Oval" cx="43" cy="44" fill="#f4eec9" r="1"/><circle id="Oval" cx="51" cy="49" fill="#f4eec9" r="1"/><circle id="Oval" cx="44" cy="50" fill="#f4eec9" r="1"/><circle id="Oval" cx="45" cy="11" fill="#f8e9af" r="1"/><circle id="Oval" cx="39" cy="21" fill="#f8e9af" r="1"/><circle id="Oval" cx="39" cy="14" fill="#f8e9af" r="2"/><circle id="Oval" cx="47" cy="20" fill="#f8e9af" r="3"/><circle id="Oval" cx="19" cy="31" fill="#f8e9af" r="1"/><circle id="Oval" cx="13" cy="41" fill="#f8e9af" r="1"/></g></g></svg>